<svg width="256" height="256" viewBox="0 0 256 256" fill="none" xmlns="http://www.w3.org/2000/svg">
<rect width="256" height="256" rx="64" fill="url(#paint0_linear)"/>
<path d="M128 64C92.6538 64 64 92.6538 64 128C64 147.214 72.464 164.444 86.4172 176.223C89.5857 178.898 94.0153 178.187 96.5398 174.965C99.0643 171.743 98.4907 167.042 95.342 164.218C83.9261 154.008 76.8 139.387 76.8 128C76.8 99.7286 99.7286 76.8 128 76.8C156.271 76.8 179.2 99.7286 179.2 128C179.2 156.271 156.271 179.2 128 179.2V192C163.346 192 192 163.346 192 128C192 92.6538 163.346 64 128 64Z" fill="white"/>
<circle cx="128" cy="128" r="32" fill="white"/>
<defs>
<linearGradient id="paint0_linear" x1="0" y1="0" x2="256" y2="256" gradientUnits="userSpaceOnUse">
<stop stop-color="#4F46E5"/>
<stop offset="1" stop-color="#7C3AED"/>
</linearGradient>
</defs>
</svg>
