<svg width="256" height="256" viewBox="0 0 256 256" fill="none" xmlns="http://www.w3.org/2560/svg">
<rect width="256" height="256" rx="64" fill="url(#paint0_linear)"/>
<path d="M128 64C92.6538 64 64 92.6538 64 128C64 147.214 72.464 164.444 85.8016 176.102C88.242 178.236 89.2892 181.564 88.5835 184.621L84.288 203.228C82.7237 210.007 89.9928 217.276 96.7724 215.712L115.379 211.416C118.436 210.711 121.764 211.758 123.898 214.198C135.556 227.536 152.786 236 172 236C207.346 236 236 207.346 236 172C236 136.654 207.346 108 172 108C152.786 108 135.556 116.464 123.898 129.802C121.764 132.242 118.436 133.289 115.379 132.584L96.7724 128.288C89.9928 126.724 82.7237 133.993 84.288 140.772L88.5835 159.379C89.2892 162.436 88.242 165.764 85.8016 167.898C72.464 156.24 64 138.995 64 120C64 84.6538 92.6538 56 128 56C163.346 56 192 84.6538 192 120" stroke="white" stroke-width="24" stroke-linecap="round"/>
<circle cx="128" cy="128" r="24" fill="white"/>
<defs>
<linearGradient id="paint0_linear" x1="0" y1="0" x2="256" y2="256" gradientUnits="userSpaceOnUse">
<stop stop-color="#8B5CF6"/>
<stop offset="1" stop-color="#06B6D4"/>
</linearGradient>
</defs>
</svg>
